HIERARCHY
ROOT Hips
{
	OFFSET 0.000000 0.000000 0.000000
	CHANNELS 6 Xposition Yposition Zposition Xrotation Yrotation Zrotation
	JOINT LeftUpLeg_virtual
	{
		OFFSET 0.000000 0.000000 0.000000
		CHANNELS 3 Xrotation Yrotation Zrotation
		JOINT LeftUpLeg
		{
			OFFSET 15.427100 -6.655098 0.678600
			CHANNELS 3 Xrotation Yrotation Zrotation
			JOINT LeftLeg
			{
				OFFSET 4.081073 -39.591068 13.024000
				CHANNELS 3 Xrotation Yrotation Zrotation
				JOINT LeftFoot
				{
					OFFSET -4.081074 -37.707932 -15.979700
					CHANNELS 3 Xrotation Yrotation Zrotation
					JOINT LeftToeBase
					{
						OFFSET 5.346399 -15.068900 20.645000
						CHANNELS 3 Xrotation Yrotation Zrotation
						JOINT LeftToe_End
						{
							OFFSET 2.754700 0.931300 11.300900
							CHANNELS 3 Xrotation Yrotation Zrotation
							End Site
							{
								OFFSET 0 0 0
							}
						}
					}
				}
			}
		}
	}
	JOINT RightUpLeg_virtual
	{
		OFFSET 0.000000 0.000000 0.000000
		CHANNELS 3 Xrotation Yrotation Zrotation
		JOINT RightUpLeg
		{
			OFFSET -15.569500 -6.655098 0.678600
			CHANNELS 3 Xrotation Yrotation Zrotation
			JOINT RightLeg
			{
				OFFSET -4.081825 -39.591045 13.023800
				CHANNELS 3 Xrotation Yrotation Zrotation
				JOINT RightFoot
				{
					OFFSET 4.081824 -37.707954 -15.979600
					CHANNELS 3 Xrotation Yrotation Zrotation
					JOINT RightToeBase
					{
						OFFSET -5.346400 -15.068900 20.645000
						CHANNELS 3 Xrotation Yrotation Zrotation
						JOINT RightToe_End
						{
							OFFSET -2.754700 0.931300 11.300900
							CHANNELS 3 Xrotation Yrotation Zrotation
							End Site
							{
								OFFSET 0 0 0
							}
						}
					}
				}
			}
		}
	}
	JOINT Spine_virtual
	{
		OFFSET 0.000000 0.000000 0.000000
		CHANNELS 3 Xrotation Yrotation Zrotation
		JOINT Spine
		{
			OFFSET -0.279200 12.230698 -2.892100
			CHANNELS 3 Xrotation Yrotation Zrotation
			JOINT Spine1
			{
				OFFSET -0.232667 10.192268 -1.242267
				CHANNELS 3 Xrotation Yrotation Zrotation
				JOINT Spine1_split
				{
					OFFSET -0.232667 10.192268 -1.242267
					CHANNELS 3 Xrotation Yrotation Zrotation
					JOINT Spine2
					{
						OFFSET -0.232667 10.192268 -1.242267
						CHANNELS 3 Xrotation Yrotation Zrotation
						JOINT Neck_virtual
						{
							OFFSET 0.000000 0.000000 0.000000
							CHANNELS 3 Xrotation Yrotation Zrotation
							JOINT Neck
							{
								OFFSET -0.418800 17.814194 8.416900
								CHANNELS 3 Xrotation Yrotation Zrotation
								JOINT Head
								{
									OFFSET 0.000000 7.031097 3.806800
									CHANNELS 3 Xrotation Yrotation Zrotation
									JOINT HeadTop_End
									{
										OFFSET 0.000000 24.646606 12.978600
										CHANNELS 3 Xrotation Yrotation Zrotation
										End Site
										{
											OFFSET 0 0 0
										}
									}
								}
							}
						}
						JOINT LeftShoulder_virtual
						{
							OFFSET 0.000000 0.000000 0.000000
							CHANNELS 3 Xrotation Yrotation Zrotation
							JOINT LeftShoulder
							{
								OFFSET 8.476499 7.247704 -3.868750
								CHANNELS 3 Xrotation Yrotation Zrotation
								JOINT LeftShoulder_split
								{
									OFFSET 8.476499 7.247704 -3.868750
									CHANNELS 3 Xrotation Yrotation Zrotation
									JOINT LeftArm
									{
										OFFSET 9.308998 -2.777710 0.208600
										CHANNELS 3 Xrotation Yrotation Zrotation
										JOINT LeftForeArm
										{
											OFFSET 29.972298 0.000000 0.000000
											CHANNELS 3 Xrotation Yrotation Zrotation
											JOINT LeftHand
											{
												OFFSET 26.026505 0.000000 0.000000
												CHANNELS 3 Xrotation Yrotation Zrotation
												End Site
												{
													OFFSET 0 0 0
												}
											}
										}
									}
								}
							}
						}
						JOINT RightShoulder_virtual
						{
							OFFSET 0.000000 0.000000 0.000000
							CHANNELS 3 Xrotation Yrotation Zrotation
							JOINT RightShoulder
							{
								OFFSET -7.570500 7.247704 -3.868750
								CHANNELS 3 Xrotation Yrotation Zrotation
								JOINT RightShoulder_split
								{
									OFFSET -7.570500 7.247704 -3.868750
									CHANNELS 3 Xrotation Yrotation Zrotation
									JOINT RightArm
									{
										OFFSET -9.308998 -2.777710 0.208500
										CHANNELS 3 Xrotation Yrotation Zrotation
										JOINT RightForeArm
										{
											OFFSET -29.972300 0.000000 0.000000
											CHANNELS 3 Xrotation Yrotation Zrotation
											JOINT RightHand
											{
												OFFSET -26.026505 0.000000 0.000000
												CHANNELS 3 Xrotation Yrotation Zrotation
												End Site
												{
													OFFSET 0 0 0
												}
											}
										}
									}
								}
							}
						}
					}
				}
			}
		}
	}
}
MOTION
Frames: 5
Frame Time: 0.03333333
6.140248 87.203850 1.408825 0.000000 0.000000 0.000000 149.976201 -87.062222 149.957281 -27.159824 35.260114 33.959168 22.343442 -9.634883 -0.260737 -5.692460 5.245560 -16.916592 0.442219 -0.551313 -0.388768 0.000000 0.000000 0.000000 157.617120 -87.353953 158.043747 -28.914404 -12.225462 -20.679999 12.504517 11.133924 -3.160864 8.312484 12.357583 17.840656 4.926916 0.357182 0.847480 0.000000 0.000000 0.000000 51.147083 -88.473121 51.490255 5.990733 -0.096915 -6.702581 1.538436 0.094790 -0.902222 0.812942 0.383911 0.217787 0.000000 0.000000 0.000000 2.053962 -0.378703 -1.316701 -10.391619 4.767342 3.842817 28.985397 75.614320 -32.322641 0.000000 0.000000 0.000000 3.263006 -0.475949 -0.847967 5.531113 -4.682119 11.086761 -1.835998 -3.502712 1.453769 -38.378242 6.019039 4.117104 -4.018219 -10.329095 -0.173884 0.000000 0.000000 0.000000 2.782777 -0.350949 -1.489994 -1.458765 0.497712 -18.549484 2.355325 1.594570 6.779892 -60.725416 54.036085 53.917551 179.727398 41.357772 -178.729139 0.000000 0.000000 0.000000 
6.152477 87.206238 1.432613 0.000000 0.000000 0.000000 150.142489 -87.071293 150.127695 -27.166213 35.253769 33.971264 22.336018 -9.644904 -0.262890 -5.704221 5.235656 -16.906100 0.439009 -0.550657 -0.383590 0.000000 0.000000 0.000000 157.581098 -87.389552 158.014896 -28.886499 -12.183967 -20.691054 12.458148 11.134153 -3.165707 8.312069 12.368018 17.880571 4.887937 0.354296 0.839634 0.000000 0.000000 0.000000 51.447570 -88.489486 51.811527 5.994917 -0.098532 -6.696923 1.535063 0.076265 -0.908041 0.786497 0.302488 0.214094 0.000000 0.000000 0.000000 2.061834 -0.393144 -1.314887 -10.368608 4.755941 3.840471 29.042671 75.682130 -32.407824 0.000000 0.000000 0.000000 3.264358 -0.493096 -0.845858 5.541750 -4.702419 11.121219 -1.772844 -3.482850 1.499557 -38.368017 6.040185 4.102532 -3.983791 -10.355401 -0.157296 0.000000 0.000000 0.000000 2.771648 -0.370111 -1.483753 -1.464098 0.449052 -18.583563 2.310624 1.613070 6.743937 -60.893780 54.107785 53.978862 179.709927 41.292974 -178.729043 0.000000 0.000000 0.000000 
6.160625 87.203445 1.455650 0.000000 0.000000 0.000000 150.281715 -87.085499 150.278806 -27.160203 35.231495 33.956709 22.330938 -9.654351 -0.260961 -5.709984 5.234096 -16.913247 0.442320 -0.549048 -0.378574 0.000000 0.000000 0.000000 157.288055 -87.435697 157.726581 -28.850442 -12.176073 -20.716578 12.408689 11.105401 -3.172922 8.266225 12.352179 17.898716 4.903281 0.356947 0.841382 0.000000 0.000000 0.000000 50.815545 -88.481481 51.202240 6.007318 -0.102375 -6.682708 1.542084 0.038916 -0.912127 0.774117 0.251395 0.227100 0.000000 0.000000 0.000000 2.075381 -0.428791 -1.314665 -10.321696 4.714180 3.859764 29.348910 75.800224 -32.766026 0.000000 0.000000 0.000000 3.275521 -0.533509 -0.845028 5.561819 -4.716935 11.185827 -1.723506 -3.478746 1.579710 -38.374598 6.149802 4.006089 -3.951516 -10.459905 -0.143629 0.000000 0.000000 0.000000 2.772783 -0.410044 -1.474399 -1.471017 0.384201 -18.643655 2.284128 1.607387 6.727552 -61.098323 54.206523 54.039104 179.687510 41.274557 -178.744971 0.000000 0.000000 0.000000 
6.164139 87.195816 1.473549 0.000000 0.000000 0.000000 150.393526 -87.094911 150.405847 -27.139951 35.194667 33.915550 22.326123 -9.660336 -0.256761 -5.705461 5.236057 -16.934189 0.450675 -0.545863 -0.376136 0.000000 0.000000 0.000000 156.769644 -87.483003 157.214193 -28.824194 -12.201721 -20.760249 12.367850 11.061109 -3.176979 8.206506 12.319153 17.910897 4.941167 0.364913 0.847823 0.000000 0.000000 0.000000 49.381656 -88.448204 49.787110 6.026094 -0.109675 -6.662549 1.557313 -0.018993 -0.913904 0.781774 0.229532 0.258898 0.000000 0.000000 0.000000 2.089785 -0.487775 -1.315810 -10.256065 4.646652 3.901199 29.882112 75.969612 -33.371532 0.000000 0.000000 0.000000 3.290831 -0.600200 -0.844912 5.590716 -4.722215 11.286023 -1.699205 -3.485128 1.664869 -38.407550 6.352574 3.844311 -3.927038 -10.616668 -0.129836 0.000000 0.000000 0.000000 2.781748 -0.472419 -1.461958 -1.480877 0.304086 -18.724634 2.268582 1.576353 6.728872 -61.295613 54.299294 54.103452 179.663441 41.310500 -178.773235 0.000000 0.000000 0.000000 
6.162692 87.187004 1.489628 0.000000 0.000000 0.000000 150.381218 -87.098490 150.406216 -27.111751 35.142860 33.855226 22.313832 -9.659183 -0.252235 -5.685947 5.232851 -16.962128 0.463004 -0.541240 -0.377665 0.000000 0.000000 0.000000 156.022804 -87.529311 156.473391 -28.815325 -12.251731 -20.823981 12.341708 11.023819 -3.170888 8.156258 12.283527 17.950335 4.949402 0.375973 0.854759 0.000000 0.000000 0.000000 47.411663 -88.393795 47.831979 6.048200 -0.120906 -6.636987 1.576876 -0.100181 -0.913445 0.795138 0.239391 0.276547 0.000000 0.000000 0.000000 2.098248 -0.571903 -1.317856 -10.175866 4.555967 3.964789 30.586506 76.178432 -34.157892 0.000000 0.000000 0.000000 3.306475 -0.695855 -0.845971 5.628550 -4.715687 11.424711 -1.694886 -3.510916 1.723554 -38.471457 6.633627 3.639107 -3.912730 -10.786097 -0.114038 0.000000 0.000000 0.000000 2.791383 -0.558371 -1.446679 -1.494043 0.208791 -18.823554 2.257645 1.533824 6.735807 -61.474278 54.349133 54.185632 179.644576 41.393928 -178.810364 0.000000 0.000000 0.000000 
